<svg width="152" height="131" fill="none" xmlns="http://www.w3.org/2000/svg"><circle cx="76" cy="58.5" r="52" fill="#E4E7EC"/><circle cx="21" cy="25.5" r="5" fill="#F2F4F7"/><circle cx="18" cy="109.5" r="7" fill="#F2F4F7"/><circle cx="145" cy="41.5" r="7" fill="#F2F4F7"/><circle cx="134" cy="14.5" r="4" fill="#F2F4F7"/><g filter="url(#a)"><path d="m76 36.563 4.536-1.9-4.535 1.932V90.69l41.795-17.515V19.057l.204-.086-.204-.09v-.091l-.104.045L76.33.5 34 18.531l.2.087-.2 53.899 42 18.14V36.564Z" fill="#F9FAFB"/><path d="M76 36.563v54.095L34 72.517l.2-53.9L76 36.564Z" fill="url(#b)"/><path d="M76 36.595V90.69l41.796-17.515V18.79L76.001 36.595Z" fill="url(#c)"/><path d="m76 36.563 42-17.592L76.33.5 34 18.531l42 18.032Z" fill="#F2F4F7"/><path d="M49.833 11.787 91.673 30l.38 13.27 11.706-4.83-.354-13.354L60.327 7.317l-10.494 4.47Z" fill="#E4E7EC"/></g><path d="M52 92.5c0-13.255 10.745-24 24-24s24 10.745 24 24-10.745 24-24 24-24-10.745-24-24Z" fill="#344054" fill-opacity=".4"/><path d="m72 96.5 4-4m0 0 4 4m-4-4v9m8-4.257a5.5 5.5 0 0 0-3.5-9.743.62.62 0 0 1-.534-.302 7.5 7.5 0 1 0-11.78 9.096" stroke="#fff" stroke-width="2" stroke-linecap="round" stroke-linejoin="round"/><defs><linearGradient id="b" x1="34" y1="72.788" x2="50.587" y2="27.867" gradientUnits="userSpaceOnUse"><stop stop-color="#DEE1E8"/><stop offset="1" stop-color="#EFF1F5"/></linearGradient><linearGradient id="c" x1="76" y1="37.654" x2="123.359" y2="47.083" gradientUnits="userSpaceOnUse"><stop stop-color="#E4E7EC"/><stop offset="1" stop-color="#F2F4F7"/></linearGradient><filter id="a" x="14" y=".5" width="124" height="130.19" filterUnits="userSpaceOnUse" color-interpolation-filters="sRGB"><feFlood flood-opacity="0" result="BackgroundImageFix"/><feColorMatrix in="SourceAlpha" values="0 0 0 0 0 0 0 0 0 0 0 0 0 0 0 0 0 0 127 0" result="hardAlpha"/><feMorphology radius="4" in="SourceAlpha" result="effect1_dropShadow_1_56568"/><feOffset dy="8"/><feGaussianBlur stdDeviation="4"/><feComposite in2="hardAlpha" operator="out"/><feColorMatrix values="0 0 0 0 0.0627451 0 0 0 0 0.0941176 0 0 0 0 0.156863 0 0 0 0.03 0"/><feBlend in2="BackgroundImageFix" result="effect1_dropShadow_1_56568"/><feColorMatrix in="SourceAlpha" values="0 0 0 0 0 0 0 0 0 0 0 0 0 0 0 0 0 0 127 0" result="hardAlpha"/><feMorphology radius="4" in="SourceAlpha" result="effect2_dropShadow_1_56568"/><feOffset dy="20"/><feGaussianBlur stdDeviation="12"/><feComposite in2="hardAlpha" operator="out"/><feColorMatrix values="0 0 0 0 0.0627451 0 0 0 0 0.0941176 0 0 0 0 0.156863 0 0 0 0.08 0"/><feBlend in2="effect1_dropShadow_1_56568" result="effect2_dropShadow_1_56568"/><feBlend in="SourceGraphic" in2="effect2_dropShadow_1_56568" result="shape"/></filter></defs></svg>